REM DIRINDEX 1\2,1\4,1\5,1\6,1\7,1\3\8,1\3\9,1\3\10
REM DIRNAME folder01,folder02,folder03,folder04,folder05,folder06,folder07,folder08,folder09,folder10
TITLE ""
FILE "DB4500_5th_1A_21.mp3" MP3
  TRACK 01 AUDIO
    TITLE "0:"
    INDEX 01 00:00:00
  TRACK 02 AUDIO
    TITLE "8:cjc113_0813"
    INDEX 01 00:00:03
  TRACK 03 AUDIO
    TITLE "0:"
    INDEX 01 00:01:21
  TRACK 04 AUDIO
    TITLE "9:cjc113_0814"
    INDEX 01 00:01:36
  TRACK 05 AUDIO
    TITLE "0:"
    INDEX 01 00:02:49
  TRACK 06 AUDIO
    TITLE "10:cjc113_0815"
    INDEX 01 00:02:67
  TRACK 07 AUDIO
    TITLE "0:"
    INDEX 01 00:06:53
  TRACK 08 AUDIO
    TITLE "8:cjc113_0816"
    INDEX 01 00:07:23
  TRACK 09 AUDIO
    TITLE "0:"
    INDEX 01 00:08:40
  TRACK 10 AUDIO
    TITLE "9:cjc113_0817"
    INDEX 01 00:08:60
  TRACK 11 AUDIO
    TITLE "0:"
    INDEX 01 00:09:71
  TRACK 12 AUDIO
    TITLE "10:cjc113_0818"
    INDEX 01 00:10:18
  TRACK 13 AUDIO
    TITLE "0:"
    INDEX 01 00:13:30
  TRACK 14 AUDIO
    TITLE "8:cjc113_0819"
    INDEX 01 00:14:00
  TRACK 15 AUDIO
    TITLE "0:"
    INDEX 01 00:15:23
  TRACK 16 AUDIO
    TITLE "9:cjc113_0820"
    INDEX 01 00:15:42
  TRACK 17 AUDIO
    TITLE "0:"
    INDEX 01 00:17:18
  TRACK 18 AUDIO
    TITLE "10:cjc113_0821"
    INDEX 01 00:17:39
  TRACK 19 AUDIO
    TITLE "0:"
    INDEX 01 00:22:11
  TRACK 20 AUDIO
    TITLE "10:cjc113_0822"
    INDEX 01 00:22:56
  TRACK 21 AUDIO
    TITLE "0:"
    INDEX 01 00:25:05
  TRACK 22 AUDIO
    TITLE "8:cjc113_0823"
    INDEX 01 00:25:45
  TRACK 23 AUDIO
    TITLE "0:"
    INDEX 01 00:26:58
  TRACK 24 AUDIO
    TITLE "9:cjc113_0824"
    INDEX 01 00:27:02
  TRACK 25 AUDIO
    TITLE "0:"
    INDEX 01 00:28:49
  TRACK 26 AUDIO
    TITLE "10:cjc113_0825"
    INDEX 01 00:28:68
  TRACK 27 AUDIO
    TITLE "0:"
    INDEX 01 00:31:45
  TRACK 28 AUDIO
    TITLE "10:cjc113_0826"
    INDEX 01 00:32:13
  TRACK 29 AUDIO
    TITLE "0:"
    INDEX 01 00:34:53
  TRACK 30 AUDIO
    TITLE "8:cjc113_0827"
    INDEX 01 00:35:19
  TRACK 31 AUDIO
    TITLE "0:"
    INDEX 01 00:36:27
  TRACK 32 AUDIO
    TITLE "9:cjc113_0828"
    INDEX 01 00:36:46
  TRACK 33 AUDIO
    TITLE "0:"
    INDEX 01 00:38:06
  TRACK 34 AUDIO
    TITLE "10:cjc113_0829"
    INDEX 01 00:38:26
  TRACK 35 AUDIO
    TITLE "0:"
    INDEX 01 00:41:67
  TRACK 36 AUDIO
    TITLE "10:cjc113_0830"
    INDEX 01 00:42:35
  TRACK 37 AUDIO
    TITLE "0:"
    INDEX 01 00:46:11
  TRACK 38 AUDIO
    TITLE "8:cjc113_0831"
    INDEX 01 00:46:56
  TRACK 39 AUDIO
    TITLE "0:"
    INDEX 01 00:48:04
  TRACK 40 AUDIO
    TITLE "9:cjc113_0832"
    INDEX 01 00:48:22
  TRACK 41 AUDIO
    TITLE "0:"
    INDEX 01 00:50:33
  TRACK 42 AUDIO
    TITLE "10:cjc113_0833"
    INDEX 01 00:50:50
  TRACK 43 AUDIO
    TITLE "0:"
    INDEX 01 00:53:74
  TRACK 44 AUDIO
    TITLE "8:cjc113_0834"
    INDEX 01 00:54:40
  TRACK 45 AUDIO
    TITLE "0:"
    INDEX 01 00:55:51
  TRACK 46 AUDIO
    TITLE "9:cjc113_0835"
    INDEX 01 00:55:69
  TRACK 47 AUDIO
    TITLE "0:"
    INDEX 01 00:58:22
  TRACK 48 AUDIO
    TITLE "10:cjc113_0836"
    INDEX 01 00:58:40
  TRACK 49 AUDIO
    TITLE "0:"
    INDEX 01 01:02:08
  TRACK 50 AUDIO
    TITLE "8:cjc113_0837"
    INDEX 01 01:02:48
  TRACK 51 AUDIO
    TITLE "0:"
    INDEX 01 01:03:59
  TRACK 52 AUDIO
    TITLE "9:cjc113_0838"
    INDEX 01 01:04:01
  TRACK 53 AUDIO
    TITLE "0:"
    INDEX 01 01:05:66
  TRACK 54 AUDIO
    TITLE "10:cjc113_0839"
    INDEX 01 01:06:08
  TRACK 55 AUDIO
    TITLE "0:"
    INDEX 01 01:09:09
  TRACK 56 AUDIO
    TITLE "8:cjc113_0840"
    INDEX 01 01:09:50
  TRACK 57 AUDIO
    TITLE "0:"
    INDEX 01 01:10:61
  TRACK 58 AUDIO
    TITLE "9:cjc113_0841"
    INDEX 01 01:11:05
  TRACK 59 AUDIO
    TITLE "0:"
    INDEX 01 01:12:52
  TRACK 60 AUDIO
    TITLE "10:cjc113_0842"
    INDEX 01 01:12:71
  TRACK 61 AUDIO
    TITLE "0:"
    INDEX 01 01:17:63
  TRACK 62 AUDIO
    TITLE "8:cjc113_0843"
    INDEX 01 01:18:33
  TRACK 63 AUDIO
    TITLE "0:"
    INDEX 01 01:19:42
  TRACK 64 AUDIO
    TITLE "9:cjc113_0844"
    INDEX 01 01:19:60
  TRACK 65 AUDIO
    TITLE "0:"
    INDEX 01 01:22:13
  TRACK 66 AUDIO
    TITLE "10:cjc113_0845"
    INDEX 01 01:22:33
  TRACK 67 AUDIO
    TITLE "0:"
    INDEX 01 01:25:04
  TRACK 68 AUDIO
    TITLE "10:cjc113_0846"
    INDEX 01 01:25:49
  TRACK 69 AUDIO
    TITLE "0:"
    INDEX 01 01:29:58
